PathFileType	4	(X/Y/Z)	Walk6.trc
DataRate	CameraRate	NumFrames	NumMarkers	Units	OrigDataRate	OrigDataStartFrame	OrigNumFrames
200.000000	200.000000	9	58	mm	200.000000	427	597
Frame#	Times		LBHD		LACR1		RMT5		LElbowM		RTH2		RTB3		LWRU		RToe		RTB2		RMT1		C7		LCAR		RCAL		RCAR		LASI		RFA1		RLFC		RWRU		LLFC		LTH3		LTH4		RElbow		RElbowM		LPSI		LTH2		RPSI		LTB2		RASI		LCAL		LMMAL		LFHD		T10		LMT5		LToe		RBHD		LUA1		LMT1		RTH3		RLMAL		RBack		RMFC		LTB1		LTB3		LTH1		LMFC		RFHD		RTB1		LTB4		RUA1		RTH1		RTH4		RTB4		LLMAL		RWRR		LWRR		RACR1		LElbow		RMMAL
			X1	Y1	Z1	X2	Y2	Z2	X3	Y3	Z3	X4	Y4	Z4	X5	Y5	Z5	X6	Y6	Z6	X7	Y7	Z7	X8	Y8	Z8	X9	Y9	Z9	X10	Y10	Z10	X11	Y11	Z11	X12	Y12	Z12	X13	Y13	Z13	X14	Y14	Z14	X15	Y15	Z15	X16	Y16	Z16	X17	Y17	Z17	X18	Y18	Z18	X19	Y19	Z19	X20	Y20	Z20	X21	Y21	Z21	X22	Y22	Z22	X23	Y23	Z23	X24	Y24	Z24	X25	Y25	Z25	X26	Y26	Z26	X27	Y27	Z27	X28	Y28	Z28	X29	Y29	Z29	X30	Y30	Z30	X31	Y31	Z31	X32	Y32	Z32	X33	Y33	Z33	X34	Y34	Z34	X35	Y35	Z35	X36	Y36	Z36	X37	Y37	Z37	X38	Y38	Z38	X39	Y39	Z39	X40	Y40	Z40	X41	Y41	Z41	X42	Y42	Z42	X43	Y43	Z43	X44	Y44	Z44	X45	Y45	Z45	X46	Y46	Z46	X47	Y47	Z47	X48	Y48	Z48	X49	Y49	Z49	X50	Y50	Z50	X51	Y51	Z51	X52	Y52	Z52	X53	Y53	Z53	X54	Y54	Z54	X55	Y55	Z55	X56	Y56	Z56	X57	Y57	Z57	X58	Y58	Z58

427	2.135	93.679	1624.8	6.9349	134.27	1431.3	-106.08	213.04	23.236	148.29	53.951	1106.2	-245.61	205.02	678.84	155.29	163.87	199.89	66.015	116.04	830.19	-237.84	310.93	23.449	108.36	170.79	285.24	144.12	257.29	29.912	68.044	45.194	1482.7	65.478	186.76	816.49	-216.4	47.734	34.894	48.724	173.91	779.9	314.92	154.99	1043.8	-116.66	80.461	913.3	323.26	162.72	524.19	163.13	104.59	795.82	288.29	192.03	523.93	-104.92	196.21	579.7	-109.47	174.38	671.54	-122.92	42.958	1070.6	327.17	8.0419	1076.3	248.98	-42.096	1038.3	4.5972	234.71	687.76	-83.324	-42.479	1041.8	74.082	107.85	335.57	-104.9	148.1	994.51	194.84	-157.16	183.94	-62.63	-66.932	169.6	-21.682	272.93	1629.8	44.153	-31.835	1223.9	49.521	-13.04	70.725	-106.83	56.73	62.286	-45.946	89.041	1612	143.16	98.944	1236.3	-197.81	6.1005	62.663	-28.741	156.34	570.36	168.28	99.287	68.98	110.31	22.33	1360.2	210.63	144.69	493.84	38.144	172.5	394.78	-27.192	41.92	267.23	-40.225	152.27	761.57	-132.22	182.22	502.31	22.049	271.04	1624.8	118.92	199.9	383.63	76.653	106.1	329.81	-31.513	115.28	1232.2	293.49	114.06	751.29	211.78	148.93	663.19	175.35	181.64	286.57	70.005	-85.577	172.13	-105.34	179.42	828.93	268.89	172.69	858.88	-181.35	152.06	1416.6	216.93	1.6287	1097.2	-178.03	130.32	73.162	35.135
428	2.14	98.353	1625.3	7.0999	138.7	1431.7	-105.8	212.97	23.165	148.36	56.759	1107	-245.04	207.6	678.58	155.56	164.37	199.77	66.067	116.65	830.49	-237.8	310.92	23.415	108.35	171.65	285.12	144.22	257.27	29.89	68.128	49.815	1483.3	65.816	187.22	816.12	-216.36	47.765	34.978	48.715	180.66	781.54	315.64	159.52	1044.3	-116.14	86.438	914.32	324.06	164.61	524.12	163.32	111.21	796.98	289.03	199.98	525.63	-104.75	203.51	581.31	-109.29	180.89	672.97	-122.86	48.104	1071.4	328.09	13.146	1076.9	249.88	-37.589	1039	4.9119	241.24	689.7	-83.415	-38.012	1042.5	74.421	118.49	335.87	-104.54	152.37	995.01	195.33	-143.92	179.35	-61.694	-53.304	166.87	-21.02	277.65	1630.2	44.166	-27.244	1224.5	50.048	2.4661	69.415	-106.51	72.821	61.923	-45.854	93.827	1612.7	143.34	102.48	1236.8	-197.41	22.141	61.55	-28.525	158.51	570.35	168.47	99.354	69.196	110.31	27.084	1361	211.13	146.47	493.72	38.251	182.26	396.06	-26.846	53.866	266.44	-39.911	157.96	762.86	-132.24	190.36	503.57	22.179	275.82	1625.3	118.94	201.06	383.33	76.9	116.71	330.1	-31.171	120.18	1233.1	294.12	117.36	751.37	212.35	152.09	663.5	173.59	182.44	286.4	70.144	-72.171	169.14	-104.6	185.87	830.54	269.61	173.6	858.64	-181.32	156.81	1417.4	217.21	4.4664	1098.4	-177.42	130.42	73.211	35.146
429	2.145	103.03	1625.9	7.2574	143.14	1432.2	-105.54	212.9	23.087	148.44	59.579	1107.8	-244.48	210.19	678.31	155.84	164.85	199.65	66.121	117.26	830.8	-237.76	310.91	23.386	108.36	172.5	284.98	144.31	257.25	29.872	68.211	54.436	1483.9	66.147	187.7	815.75	-216.33	47.797	35.06	48.707	187.4	783.15	316.34	164.01	1044.8	-115.64	92.399	915.31	324.86	166.48	524.05	163.51	117.81	798.12	289.77	207.8	527.3	-104.59	210.73	582.9	-109.12	187.35	674.39	-122.8	53.24	1072.2	329.01	18.233	1077.6	250.78	-33.097	1039.7	5.2158	247.66	691.62	-83.467	-33.562	1043.1	74.747	129.11	336.11	-104.19	156.63	995.48	195.78	-130.48	174.57	-60.73	-39.513	164.01	-20.352	282.36	1630.6	44.163	-22.659	1225	50.561	18.136	68.042	-106.2	89.055	61.557	-45.802	98.616	1613.4	143.51	106.03	1237.4	-197.02	38.35	60.373	-28.336	160.66	570.32	168.64	99.415	69.414	110.33	31.832	1361.8	211.62	148.25	493.61	38.34	191.96	397.32	-26.522	65.858	265.5	-39.566	163.62	764.13	-132.26	198.38	504.83	22.323	280.61	1625.7	118.94	202.24	383.03	77.141	127.36	330.34	-30.864	125.07	1233.9	294.74	120.84	751.51	212.87	155.16	663.77	172	183.24	286.23	70.274	-58.609	166	-103.86	192.3	832.14	270.32	174.52	858.41	-181.31	161.54	1418.2	217.49	7.3106	1099.5	-176.81	130.52	73.257	35.155
430	2.15	107.7	1626.4	7.4075	147.58	1432.6	-105.28	212.82	23.004	148.52	62.411	1108.5	-243.93	212.78	678.01	156.13	165.33	199.53	66.178	117.89	831.1	-237.73	310.9	23.365	108.36	173.35	284.85	144.4	257.23	29.856	68.289	59.059	1484.4	66.468	188.19	815.39	-216.31	47.828	35.141	48.7	194.12	784.73	317.03	168.47	1045.3	-115.16	98.343	916.27	325.64	168.33	523.96	163.68	124.37	799.23	290.48	215.5	528.93	-104.43	217.85	584.49	-108.97	193.76	675.79	-122.75	58.366	1073	329.92	23.305	1078.2	251.69	-28.619	1040.3	5.5095	253.98	693.51	-83.48	-29.13	1043.7	75.061	139.7	336.29	-103.84	160.88	995.92	196.21	-116.85	169.64	-59.749	-25.561	161.03	-19.684	287.08	1631	44.145	-18.082	1225.6	51.059	33.962	66.615	-105.92	105.42	61.198	-45.787	103.41	1614	143.68	109.59	1237.9	-196.64	54.721	59.143	-28.174	162.78	570.28	168.79	99.471	69.627	110.37	36.574	1362.5	212.1	150.03	493.52	38.416	201.6	398.56	-26.223	77.887	264.42	-39.19	169.23	765.38	-132.29	206.25	506.08	22.481	285.4	1626.2	118.93	203.44	382.71	77.37	138.07	330.53	-30.59	129.96	1234.8	295.36	124.5	751.69	213.33	158.1	663.99	170.68	184.06	286.05	70.391	-44.891	162.73	-103.11	198.71	833.71	271.02	175.45	858.17	-181.3	166.27	1418.9	217.76	10.164	1100.6	-176.23	130.62	73.298	35.161
431	2.155	112.37	1626.8	7.5503	152.02	1432.9	-105.03	212.74	22.919	148.6	65.256	1109.3	-243.38	215.4	677.7	156.43	165.8	199.4	66.238	118.54	831.4	-237.7	310.9	23.349	108.37	174.2	284.7	144.48	257.21	29.843	68.362	63.685	1484.9	66.779	188.7	815.02	-216.32	47.859	35.22	48.694	200.81	786.27	317.7	172.9	1045.8	-114.7	104.27	917.2	326.41	170.17	523.87	163.85	130.92	800.33	291.18	223.05	530.51	-104.28	224.89	586.05	-108.81	200.11	677.17	-122.71	63.483	1073.7	330.82	28.365	1078.8	252.59	-24.153	1040.9	5.7936	260.2	695.37	-83.453	-24.714	1044.4	75.362	150.27	336.41	-103.51	165.13	996.33	196.61	-103.02	164.56	-58.76	-11.453	157.94	-19.021	291.79	1631.4	44.113	-13.511	1226.1	51.541	49.937	65.144	-105.66	121.91	60.854	-45.806	108.2	1614.6	143.84	113.16	1238.3	-196.27	71.243	57.874	-28.035	164.88	570.23	168.91	99.52	69.827	110.42	41.309	1363.2	212.56	151.8	493.42	38.484	211.19	399.78	-25.948	89.95	263.2	-38.784	174.81	766.6	-132.31	213.98	507.31	22.652	290.19	1626.6	118.89	204.65	382.38	77.586	148.82	330.67	-30.348	134.84	1235.6	295.97	128.31	751.9	213.72	160.9	664.16	169.7	184.89	285.88	70.494	-31.019	159.35	-102.36	205.11	835.25	271.7	176.4	857.93	-181.31	171	1419.6	218.03	13.028	1101.7	-175.65	130.71	73.335	35.164
432	2.16	117.03	1627.3	7.6859	156.46	1433.3	-104.8	212.66	22.834	148.68	68.115	1110	-242.84	218.03	677.38	156.76	166.28	199.27	66.299	119.19	831.69	-237.67	310.89	23.339	108.38	175.05	284.55	144.55	257.19	29.833	68.429	68.319	1485.4	67.077	189.23	814.66	-216.34	47.891	35.296	48.688	207.49	787.77	318.36	177.31	1046.2	-114.26	110.19	918.09	327.17	172.01	523.77	164.01	137.46	801.4	291.87	230.47	532.04	-104.13	231.83	587.6	-108.67	206.4	678.53	-122.67	68.592	1074.4	331.72	33.414	1079.3	253.48	-19.7	1041.5	6.0681	266.3	697.19	-83.384	-20.314	1044.9	75.65	160.81	336.48	-103.19	169.36	996.73	196.99	-88.997	159.35	-57.77	2.8102	154.77	-18.368	296.5	1631.7	44.068	-8.9472	1226.5	52.006	66.056	63.641	-105.42	138.51	60.536	-45.857	112.99	1615.2	143.99	116.74	1238.8	-195.9	87.907	56.579	-27.917	166.97	570.16	169.01	99.565	70.011	110.48	46.037	1363.8	213	153.57	493.34	38.545	220.71	400.96	-25.699	102.05	261.87	-38.354	180.36	767.8	-132.33	221.57	508.52	22.835	294.98	1627	118.85	205.9	382.05	77.783	159.62	330.75	-30.132	139.71	1236.3	296.56	132.23	752.15	214.04	163.56	664.26	169.1	185.74	285.7	70.583	-16.99	155.85	-101.62	211.49	836.76	272.37	177.37	857.68	-181.32	175.71	1420.2	218.29	15.908	1102.8	-175.07	130.8	73.366	35.164
433	2.165	121.7	1627.7	7.8142	160.91	1433.5	-104.58	212.58	22.753	148.75	70.989	1110.6	-242.31	220.69	677.03	157.11	166.78	199.14	66.358	119.87	831.97	-237.65	310.89	23.334	108.4	175.9	284.39	144.61	257.17	29.825	68.488	72.959	1485.8	67.362	189.79	814.3	-216.38	47.926	35.369	48.679	214.15	789.23	319.01	181.7	1046.6	-113.83	116.09	918.94	327.93	173.84	523.66	164.16	143.98	802.45	292.54	237.75	533.52	-103.98	238.67	589.11	-108.52	212.63	679.86	-122.63	73.694	1075.1	332.6	38.454	1079.8	254.37	-15.258	1042.1	6.3329	272.31	698.97	-83.271	-15.93	1045.5	75.925	171.31	336.49	-102.89	173.59	997.1	197.34	-74.772	154.04	-56.788	17.227	151.52	-17.728	301.2	1632	44.01	-4.3898	1227	52.451	82.315	62.114	-105.19	155.22	60.252	-45.934	117.79	1615.7	144.13	120.32	1239.2	-195.55	104.7	55.272	-27.818	169.05	570.08	169.1	99.607	70.174	110.54	50.758	1364.4	213.43	155.35	493.26	38.601	230.17	402.11	-25.474	114.18	260.43	-37.907	185.88	768.96	-132.35	229.02	509.7	23.029	299.77	1627.4	118.79	207.17	381.7	77.961	170.45	330.78	-29.938	144.58	1237.1	297.15	136.22	752.41	214.29	166.06	664.28	168.92	186.61	285.52	70.658	-2.8049	152.26	-100.89	217.85	838.24	273.02	178.35	857.42	-181.34	180.41	1420.8	218.55	18.805	1103.8	-174.51	130.89	73.389	35.161
434	2.17	126.36	1628	7.9348	165.38	1433.8	-104.37	212.51	22.678	148.83	73.877	1111.3	-241.79	223.38	676.66	157.48	167.29	199.02	66.414	120.57	832.23	-237.62	310.89	23.334	108.41	176.76	284.21	144.67	257.16	29.819	68.541	77.608	1486.3	67.632	190.38	813.95	-216.44	47.964	35.437	48.668	220.78	790.64	319.65	186.07	1047	-113.41	121.98	919.76	328.67	175.67	523.54	164.29	150.5	803.48	293.2	244.87	534.93	-103.83	245.4	590.59	-108.37	218.78	681.15	-122.59	78.79	1075.7	333.48	43.488	1080.3	255.25	-10.825	1042.6	6.5877	278.2	700.69	-83.113	-11.562	1046	76.184	181.78	336.45	-102.6	177.81	997.45	197.67	-60.347	148.63	-55.823	31.795	148.21	-17.106	305.91	1632.3	43.94	0.16121	1227.4	52.877	98.708	60.573	-104.99	172.02	60.012	-46.031	122.58	1616.2	144.27	123.91	1239.6	-195.21	121.63	53.969	-27.733	171.13	569.99	169.16	99.649	70.317	110.6	55.473	1365	213.84	157.12	493.18	38.653	239.55	403.23	-25.271	126.37	258.92	-37.453	191.38	770.09	-132.36	236.32	510.85	23.234	304.56	1627.8	118.72	208.46	381.35	78.118	181.29	330.75	-29.761	149.44	1237.7	297.73	140.24	752.67	214.48	168.41	664.23	169.19	187.5	285.33	70.718	11.537	148.6	-100.18	224.19	839.68	273.66	179.35	857.15	-181.36	185.11	1421.4	218.8	21.721	1104.8	-173.95	130.97	73.405	35.154
435	2.175	131.01	1628.3	8.0477	169.85	1434	-104.16	212.43	22.609	148.89	76.781	1111.9	-241.27	226.1	676.27	157.87	167.82	198.89	66.463	121.29	832.49	-237.6	310.88	23.338	108.43	177.63	284.02	144.71	257.14	29.814	68.586	82.266	1486.6	67.888	191.01	813.59	-216.52	48.007	35.498	48.654	227.4	792.01	320.27	190.44	1047.3	-113.02	127.86	920.53	329.4	177.51	523.41	164.42	157.02	804.47	293.85	251.85	536.28	-103.68	252.03	592.03	-108.22	224.86	682.41	-122.56	83.881	1076.2	334.35	48.514	1080.7	256.13	-6.4009	1043.1	6.8319	283.98	702.35	-82.908	-7.2074	1046.6	76.429	192.21	336.35	-102.33	182.03	997.79	197.97	-45.72	143.15	-54.881	46.514	144.85	-16.506	310.62	1632.5	43.859	4.7061	1227.8	53.283	115.23	59.028	-104.8	188.9	59.826	-46.143	127.38	1616.6	144.4	127.51	1240	-194.87	138.66	52.686	-27.662	173.2	569.88	169.22	99.692	70.441	110.65	60.183	1365.5	214.24	158.9	493.1	38.701	248.85	404.3	-25.089	138.6	257.35	-36.999	196.84	771.17	-132.37	243.47	511.95	23.446	309.35	1628.1	118.64	209.78	380.98	78.253	192.14	330.66	-29.594	154.3	1238.4	298.3	144.26	752.92	214.62	170.62	664.1	169.9	188.42	285.13	70.766	26.036	144.86	-99.491	230.51	841.08	274.29	180.38	856.86	-181.38	189.81	1421.9	219.06	24.66	1105.8	-173.39	131.05	73.412	35.141
